<?xml version="1.0" encoding="UTF-8"?><svg id="Layer_2" xmlns="http://www.w3.org/2000/svg" viewBox="0 0 38.27 36.09"><defs><style>.cls-1{fill:#e6e7e8;}</style></defs><g id="forms"><path class="cls-1" d="M.73,35.48C.36,29.9,.06,24.31,.05,18.71,.14,14.56-.48,9.93,1.06,5.96,5.04-4.25,22.1-.54,17.67,11.03c-1.58,4.02-5.1,6.87-7.58,10.18-3.43,3.96-4.14,10.97,1.65,12.88,3.88,1.28,7.23-2.44,8.13-5.93,.97-3.39,.81-7.47,3.51-10.16,2.01-2.24,5.71-2.27,7.82-.16,1.42,1.35,2.08,3.21,2.6,5.01,.56,2.08,.75,4.18,1.06,6.29,.2,1.38,.27,2.8,.69,4.04,.4,1.28,1.57,2.23,2.71,2.9-4.62-1.28-4.24-7.09-5.44-10.81-.7-3.23-2.64-8.19-6.76-6.86-6.62,2.81-2.77,13.89-10.17,17.16-2.96,1.37-6.6-.04-8.38-2.63-2.73-3.91-.93-8.96,1.77-12.32,2.46-3.37,5.73-6.09,7.1-10.05C19.92-.5,2.14-2.02,1.74,10.41c-.38,8.28-.2,16.72,.07,25.01l-1.08,.06h0Z"/></g></svg>